HIERARCHY
ROOT hips
{
	OFFSET 0.000000 104.274902 0.000000
	CHANNELS 6 Xposition Yposition Zposition Xrotation Yrotation Zrotation
	JOINT spine
	{
		OFFSET 0.000000 10.181549 0.131524
		CHANNELS 6 Xposition Yposition Zposition Xrotation Yrotation Zrotation
		JOINT chest
		{
			OFFSET 0.000000 9.893990 -1.470706
			CHANNELS 3 Xrotation Yrotation Zrotation
			JOINT upperChest
			{
				OFFSET 0.000000 9.220787 -1.370637
				CHANNELS 3 Xrotation Yrotation Zrotation
				JOINT neck
				{
					OFFSET 0.000000 16.740372 -2.049022
					CHANNELS 6 Xposition Yposition Zposition Xrotation Yrotation Zrotation
					JOINT head
					{
						OFFSET 0.000000 9.617859 1.684976
						CHANNELS 6 Xposition Yposition Zposition Xrotation Yrotation Zrotation
						JOINT headEnd
						{
							OFFSET 0.000000 22.037384 7.501072
							CHANNELS 6 Xposition Yposition Zposition Xrotation Yrotation Zrotation
							End Site
							{
								OFFSET 0.000000 23.106567 -2.828246
							}
						}
					}
				}
				JOINT rightShoulder
				{
					OFFSET -4.570000 11.014877 -2.160840
					CHANNELS 6 Xposition Yposition Zposition Xrotation Yrotation Zrotation
					JOINT rightUpperArm
					{
						OFFSET -10.592867 -0.524796 -2.232105
						CHANNELS 3 Xrotation Yrotation Zrotation
						JOINT rightLowerArm
						{
							OFFSET -27.841497 0.000000 -0.000002
							CHANNELS 3 Xrotation Yrotation Zrotation
							JOINT rightHand
							{
								OFFSET -28.328812 0.000000 -0.000001
								CHANNELS 3 Xrotation Yrotation Zrotation
								JOINT rightThumbProximal
								{
									OFFSET -2.464798 -1.573990 2.681911
									CHANNELS 6 Xposition Yposition Zposition Xrotation Yrotation Zrotation
									JOINT rightThumbIntermediate
									{
										OFFSET -3.244781 -1.873383 1.873376
										CHANNELS 3 Xrotation Yrotation Zrotation
										JOINT rightThumbDistal
										{
											OFFSET -2.646263 -1.527817 1.527818
											CHANNELS 6 Xposition Yposition Zposition Xrotation Yrotation Zrotation
											JOINT rightHandThumb4
											{
												OFFSET -1.994591 -1.151581 1.151575
												CHANNELS 6 Xposition Yposition Zposition Xrotation Yrotation Zrotation
												End Site
												{
													OFFSET -1.860176 -1.142715 1.365483
												}
											}
										}
									}
								}
								JOINT rightIndexProximal
								{
									OFFSET -9.108299 -0.517883 2.259803
									CHANNELS 6 Xposition Yposition Zposition Xrotation Yrotation Zrotation
									JOINT rightIndexIntermediate
									{
										OFFSET -3.699997 0.000000 0.000000
										CHANNELS 3 Xrotation Yrotation Zrotation
										JOINT rightIndexDistal
										{
											OFFSET -2.850006 0.000000 0.000000
											CHANNELS 3 Xrotation Yrotation Zrotation
											JOINT rightHandIndex4
											{
												OFFSET -2.772194 0.000000 0.000000
												CHANNELS 3 Xrotation Yrotation Zrotation
												End Site
												{
													OFFSET -2.772202 0.000000 -0.000484
												}
											}
										}
									}
								}
								JOINT rightMiddleProximal
								{
									OFFSET -9.532501 0.000000 -0.000000
									CHANNELS 6 Xposition Yposition Zposition Xrotation Yrotation Zrotation
									JOINT rightMiddleIntermediate
									{
										OFFSET -3.699997 0.000000 0.000000
										CHANNELS 3 Xrotation Yrotation Zrotation
										JOINT rightMiddleDistal
										{
											OFFSET -2.949997 0.000000 0.000000
											CHANNELS 3 Xrotation Yrotation Zrotation
											JOINT rightHandMiddle4
											{
												OFFSET -2.946594 0.000000 0.000000
												CHANNELS 3 Xrotation Yrotation Zrotation
												End Site
												{
													OFFSET -2.946602 0.000000 -0.000982
												}
											}
										}
									}
								}
								JOINT rightRingProximal
								{
									OFFSET -9.103600 -0.043106 -1.865100
									CHANNELS 6 Xposition Yposition Zposition Xrotation Yrotation Zrotation
									JOINT rightRingIntermediate
									{
										OFFSET -3.379303 0.000000 0.000000
										CHANNELS 3 Xrotation Yrotation Zrotation
										JOINT rightRingDistal
										{
											OFFSET -2.889694 0.000000 0.000000
											CHANNELS 3 Xrotation Yrotation Zrotation
											JOINT rightHandRing4
											{
												OFFSET -2.638802 0.000000 0.000000
												CHANNELS 3 Xrotation Yrotation Zrotation
												End Site
												{
													OFFSET -2.638802 0.000000 0.004218
												}
											}
										}
									}
								}
								JOINT rightLittleProximal
								{
									OFFSET -8.076698 -0.486725 -3.806299
									CHANNELS 6 Xposition Yposition Zposition Xrotation Yrotation Zrotation
									JOINT rightLittleIntermediate
									{
										OFFSET -3.600006 0.000000 0.000000
										CHANNELS 3 Xrotation Yrotation Zrotation
										JOINT rightLittleDistal
										{
											OFFSET -2.099998 0.000000 0.000000
											CHANNELS 3 Xrotation Yrotation Zrotation
											JOINT rightHandPinky4
											{
												OFFSET -2.115791 0.000000 0.000000
												CHANNELS 3 Xrotation Yrotation Zrotation
												End Site
												{
													OFFSET -2.115799 0.000000 0.000174
												}
											}
										}
									}
								}
							}
						}
					}
				}
				JOINT leftShoulder
				{
					OFFSET 4.570400 11.014679 -2.160816
					CHANNELS 6 Xposition Yposition Zposition Xrotation Yrotation Zrotation
					JOINT leftUpperArm
					{
						OFFSET 10.592373 -0.524597 -2.232116
						CHANNELS 3 Xrotation Yrotation Zrotation
						JOINT leftLowerArm
						{
							OFFSET 27.841488 0.000000 0.000001
							CHANNELS 3 Xrotation Yrotation Zrotation
							JOINT leftHand
							{
								OFFSET 28.328808 0.000000 -0.000000
								CHANNELS 3 Xrotation Yrotation Zrotation
								JOINT leftThumbProximal
								{
									OFFSET 2.466103 -1.576202 2.681698
									CHANNELS 6 Xposition Yposition Zposition Xrotation Yrotation Zrotation
									JOINT leftThumbIntermediate
									{
										OFFSET 3.243317 -1.872528 1.872530
										CHANNELS 3 Xrotation Yrotation Zrotation
										JOINT leftThumbDistal
										{
											OFFSET 2.647881 -1.528763 1.528754
											CHANNELS 6 Xposition Yposition Zposition Xrotation Yrotation Zrotation
											JOINT leftHandThumb4
											{
												OFFSET 1.998924 -1.154083 1.154080
												CHANNELS 6 Xposition Yposition Zposition Xrotation Yrotation Zrotation
												End Site
												{
													OFFSET 1.884041 -1.149155 1.337651
												}
											}
										}
									}
								}
								JOINT leftIndexProximal
								{
									OFFSET 9.109299 -0.518005 2.259900
									CHANNELS 6 Xposition Yposition Zposition Xrotation Yrotation Zrotation
									JOINT leftIndexIntermediate
									{
										OFFSET 3.699997 0.000000 0.000000
										CHANNELS 3 Xrotation Yrotation Zrotation
										JOINT leftIndexDistal
										{
											OFFSET 2.850006 0.000000 0.000000
											CHANNELS 3 Xrotation Yrotation Zrotation
											JOINT leftHandIndex4
											{
												OFFSET 2.774895 0.000000 0.000000
												CHANNELS 3 Xrotation Yrotation Zrotation
												End Site
												{
													OFFSET 2.774902 0.000000 -0.000072
												}
											}
										}
									}
								}
								JOINT leftMiddleProximal
								{
									OFFSET 9.533401 0.000000 0.000000
									CHANNELS 6 Xposition Yposition Zposition Xrotation Yrotation Zrotation
									JOINT leftMiddleIntermediate
									{
										OFFSET 3.699997 0.000000 0.000000
										CHANNELS 3 Xrotation Yrotation Zrotation
										JOINT leftMiddleDistal
										{
											OFFSET 2.949997 0.000000 0.000000
											CHANNELS 3 Xrotation Yrotation Zrotation
											JOINT leftHandMiddle4
											{
												OFFSET 2.952896 0.000000 0.000000
												CHANNELS 3 Xrotation Yrotation Zrotation
												End Site
												{
													OFFSET 2.952904 0.000000 0.000165
												}
											}
										}
									}
								}
								JOINT leftRingProximal
								{
									OFFSET 9.104500 -0.042999 -1.865101
									CHANNELS 6 Xposition Yposition Zposition Xrotation Yrotation Zrotation
									JOINT leftRingIntermediate
									{
										OFFSET 3.149994 0.000000 0.000000
										CHANNELS 3 Xrotation Yrotation Zrotation
										JOINT leftRingDistal
										{
											OFFSET 2.950005 0.000000 0.000000
											CHANNELS 3 Xrotation Yrotation Zrotation
											JOINT leftHandRing4
											{
												OFFSET 2.644302 0.000000 0.000000
												CHANNELS 3 Xrotation Yrotation Zrotation
												End Site
												{
													OFFSET 2.644302 0.000000 0.000083
												}
											}
										}
									}
								}
								JOINT leftLittleProximal
								{
									OFFSET 8.077805 -0.486893 -3.806302
									CHANNELS 6 Xposition Yposition Zposition Xrotation Yrotation Zrotation
									JOINT leftLittleIntermediate
									{
										OFFSET 3.600006 0.000000 0.000000
										CHANNELS 3 Xrotation Yrotation Zrotation
										JOINT leftLittleDistal
										{
											OFFSET 2.099998 0.000000 0.000000
											CHANNELS 3 Xrotation Yrotation Zrotation
											JOINT leftHandPinky4
											{
												OFFSET 2.125496 0.000000 0.000000
												CHANNELS 3 Xrotation Yrotation Zrotation
												End Site
												{
													OFFSET 2.125504 0.000000 -0.001254
												}
											}
										}
									}
								}
							}
						}
					}
				}
			}
		}
	}
	JOINT rightUpperLeg
	{
		OFFSET -8.207800 -6.751701 -1.599544
		CHANNELS 6 Xposition Yposition Zposition Xrotation Yrotation Zrotation
		JOINT rightLowerLeg
		{
			OFFSET 0.000004 -44.370152 0.345934
			CHANNELS 3 Xrotation Yrotation Zrotation
			JOINT rightFoot
			{
				OFFSET 0.000004 -44.423664 -3.043535
				CHANNELS 3 Xrotation Yrotation Zrotation
				JOINT rightToes
				{
					OFFSET 0.000001 -8.728691 10.710592
					CHANNELS 3 Xrotation Yrotation Zrotation
					JOINT rightToesEnd
					{
						OFFSET 0.000000 -0.000665 9.278101
						CHANNELS 3 Xrotation Yrotation Zrotation
						End Site
						{
							OFFSET 0.000000 -0.000665 9.278103
						}
					}
				}
			}
		}
	}
	JOINT leftUpperLeg
	{
		OFFSET 8.207800 -6.751701 -1.599544
		CHANNELS 6 Xposition Yposition Zposition Xrotation Yrotation Zrotation
		JOINT leftLowerLeg
		{
			OFFSET 0.000004 -44.370037 0.346940
			CHANNELS 3 Xrotation Yrotation Zrotation
			JOINT leftFoot
			{
				OFFSET 0.000004 -44.423611 -3.044388
				CHANNELS 3 Xrotation Yrotation Zrotation
				JOINT leftToes
				{
					OFFSET 0.000001 -8.728690 10.710592
					CHANNELS 3 Xrotation Yrotation Zrotation
					JOINT leftToesEnd
					{
						OFFSET 0.000000 -0.000680 9.278101
						CHANNELS 3 Xrotation Yrotation Zrotation
						End Site
						{
							OFFSET 0.000000 -0.000680 9.278101
						}
					}
				}
			}
		}
	}
}
MOTION
Frames: 4
Frame Time: 0.033333
-0.368139 142.156342 -0.752213 -5.543386 17.664621 6.775691 -0.000000 10.181535 0.131525 0.155843 -0.764082 -1.019956 0.313264 -1.370193 -1.299821 0.313266 -1.370202 -1.299823 -0.000002 16.740358 -2.049018 7.714460 -2.164490 0.197471 -0.000000 9.617868 1.684972 8.255371 -11.438071 -2.203085 -0.000001 22.037384 7.501075 -0.000000 0.000000 0.000000 -4.570002 11.014859 -2.160840 0.570957 2.998532 5.279567 -1.665563 -1.563051 28.844507 4.001658 59.456551 -3.447800 -13.998278 -24.715033 -27.701415 -2.464786 -1.573992 2.681895 -10.328019 -1.313889 -8.957188 5.929323 0.659255 -8.093366 -2.646248 -1.527823 1.527807 0.000008 -0.000006 -0.000003 -1.994591 -1.151576 1.151572 -0.000003 -0.000003 0.000003 -9.108295 -0.517868 2.259789 -5.103966 2.286764 -8.562054 0.056193 -0.632374 6.483872 -0.000003 0.000011 -0.000006 -0.000003 0.000004 0.000003 -9.532495 -0.000007 -0.000019 0.041816 -7.435052 -5.272626 -0.133741 0.658997 13.512131 -0.000002 -0.000001 -0.000001 -0.000002 0.000001 0.000001 -9.103596 -0.043108 -1.865121 -1.561224 -16.758369 -9.692859 -0.264698 0.407808 23.924961 -0.000005 -0.000005 -0.000004 -0.000001 0.000001 0.000001 -8.076698 -0.486724 -3.806305 2.026101 -27.178298 -1.280424 -0.246049 1.881846 18.253110 0.000001 -0.000009 0.000015 -0.000000 0.000003 0.000003 4.570398 11.014677 -2.160814 0.383868 0.241296 -3.338439 -1.866033 36.648302 -6.876131 13.392001 -80.410096 13.211449 41.143653 12.543599 28.640602 2.466104 -1.576218 2.681693 -9.327200 5.317635 9.810511 4.331913 -1.353656 9.862628 2.647866 -1.528743 1.528772 0.000005 -0.000001 -0.000000 1.998917 -1.154081 1.154091 0.000001 0.000000 0.000003 9.109305 -0.517993 2.259889 -6.697107 -2.459068 10.394028 0.518801 0.852072 -8.045121 -0.000003 0.000003 -0.000007 -0.000000 -0.000001 -0.000000 9.533404 0.000027 -0.000014 -0.788153 7.789223 6.144145 0.007166 -0.486114 -13.943981 -0.000002 -0.000000 -0.000000 -0.000003 0.000000 -0.000002 9.104504 -0.042988 -1.865110 0.219891 16.598727 8.448402 -0.492806 -0.918176 -22.349246 0.000000 -0.000000 0.000001 0.000002 -0.000000 0.000001 8.077820 -0.486890 -3.806312 6.313556 25.496259 -2.313238 -0.705315 -2.871221 -16.946169 -0.000000 -0.000001 -0.000001 0.000000 -0.000001 -0.000002 -8.207803 -6.751705 -1.599542 -45.859301 -3.702754 -8.764705 62.617453 1.149726 2.163024 11.245409 -15.233361 5.734477 0.000169 0.001219 -0.004058 0.000000 0.000000 -0.000000 8.207799 -6.751698 -1.599546 -31.210642 10.799505 -1.159169 36.558226 -0.342963 -1.277777 -1.465868 2.408947 0.808393 -6.859756 -0.042585 0.024935 -0.000000 0.000001 0.000000 
-0.368139 142.156342 -0.752213 -5.543386 17.664621 6.775691 -0.000000 10.181535 0.131525 0.155843 -0.764082 -1.019956 0.313264 -1.370193 -1.299821 0.313266 -1.370202 -1.299823 -0.000002 16.740358 -2.049018 7.714460 -2.164490 0.197471 -0.000000 9.617868 1.684972 8.255371 -11.438071 -2.203085 -0.000001 22.037384 7.501075 -0.000000 0.000000 0.000000 -4.570002 11.014859 -2.160840 0.570957 2.998532 5.279567 -1.665563 -1.563051 28.844507 4.001658 59.456551 -3.447800 -13.998278 -24.715033 -27.701415 -2.464786 -1.573992 2.681895 -10.328019 -1.313889 -8.957188 5.929323 0.659255 -8.093366 -2.646248 -1.527823 1.527807 0.000008 -0.000006 -0.000003 -1.994591 -1.151576 1.151572 -0.000003 -0.000003 0.000003 -9.108295 -0.517868 2.259789 -5.103966 2.286764 -8.562054 0.056193 -0.632374 6.483872 -0.000003 0.000011 -0.000006 -0.000003 0.000004 0.000003 -9.532495 -0.000007 -0.000019 0.041816 -7.435052 -5.272626 -0.133741 0.658997 13.512131 -0.000002 -0.000001 -0.000001 -0.000002 0.000001 0.000001 -9.103596 -0.043108 -1.865121 -1.561224 -16.758369 -9.692859 -0.264698 0.407808 23.924961 -0.000005 -0.000005 -0.000004 -0.000001 0.000001 0.000001 -8.076698 -0.486724 -3.806305 2.026101 -27.178298 -1.280424 -0.246049 1.881846 18.253110 0.000001 -0.000009 0.000015 -0.000000 0.000003 0.000003 4.570398 11.014677 -2.160814 0.383868 0.241296 -3.338439 -1.866033 36.648302 -6.876131 13.392001 -80.410096 13.211449 41.143653 12.543599 28.640602 2.466104 -1.576218 2.681693 -9.327200 5.317635 9.810511 4.331913 -1.353656 9.862628 2.647866 -1.528743 1.528772 0.000005 -0.000001 -0.000000 1.998917 -1.154081 1.154091 0.000001 0.000000 0.000003 9.109305 -0.517993 2.259889 -6.697107 -2.459068 10.394028 0.518801 0.852072 -8.045121 -0.000003 0.000003 -0.000007 -0.000000 -0.000001 -0.000000 9.533404 0.000027 -0.000014 -0.788153 7.789223 6.144145 0.007166 -0.486114 -13.943981 -0.000002 -0.000000 -0.000000 -0.000003 0.000000 -0.000002 9.104504 -0.042988 -1.865110 0.219891 16.598727 8.448402 -0.492806 -0.918176 -22.349246 0.000000 -0.000000 0.000001 0.000002 -0.000000 0.000001 8.077820 -0.486890 -3.806312 6.313556 25.496259 -2.313238 -0.705315 -2.871221 -16.946169 -0.000000 -0.000001 -0.000001 0.000000 -0.000001 -0.000002 -8.207803 -6.751705 -1.599542 -45.859301 -3.702754 -8.764705 62.617453 1.149726 2.163024 11.245409 -15.233361 5.734477 0.000169 0.001219 -0.004058 0.000000 0.000000 -0.000000 8.207799 -6.751698 -1.599546 -31.210642 10.799505 -1.159169 36.558226 -0.342963 -1.277777 -1.465868 2.408947 0.808393 -6.859756 -0.042585 0.024935 -0.000000 0.000001 0.000000 
-0.497977 142.120987 -0.763465 -5.320647 17.553579 6.502653 0.000001 10.181553 0.131522 0.151350 -0.757462 -1.006014 0.303971 -1.358818 -1.296772 0.303971 -1.358821 -1.296770 -0.000001 16.740381 -2.049021 7.879690 -2.162025 0.120218 0.000001 9.617867 1.684972 8.713204 -11.453640 -2.173331 0.000000 22.037384 7.501076 0.000001 0.000000 0.000000 -4.570000 11.014861 -2.160839 0.564364 2.856576 5.057423 -1.065081 -2.443259 28.556307 4.141312 60.456600 -3.604346 -13.384824 -25.653467 -26.355579 -2.464798 -1.573982 2.681901 -10.328020 -1.313896 -8.957151 5.929335 0.659257 -8.093379 -2.646263 -1.527805 1.527825 0.000013 -0.000009 -0.000006 -1.994594 -1.151584 1.151582 -0.000001 -0.000002 -0.000002 -9.108294 -0.517863 2.259798 -5.103964 2.286775 -8.562051 0.056194 -0.632375 6.483864 -0.000004 0.000010 -0.000006 -0.000001 0.000003 0.000001 -9.532499 0.000021 -0.000015 0.041834 -7.435060 -5.272617 -0.133749 0.658989 13.512132 -0.000002 0.000004 0.000004 -0.000002 0.000003 0.000002 -9.103591 -0.043092 -1.865106 -1.561209 -16.758361 -9.692844 -0.264696 0.407808 23.924963 -0.000007 -0.000006 -0.000002 0.000001 0.000005 -0.000001 -8.076695 -0.486699 -3.806301 2.026119 -27.178294 -1.280407 -0.246046 1.881852 18.253115 -0.000001 -0.000010 0.000012 0.000001 0.000002 -0.000000 4.570399 11.014672 -2.160814 0.381821 0.263071 -3.311719 -1.408466 36.326259 -7.397120 12.214188 -79.485275 12.015090 41.018728 12.723248 29.180030 2.466103 -1.576227 2.681700 -9.327197 5.317613 9.810505 4.331902 -1.353661 9.862630 2.647885 -1.528747 1.528749 0.000006 0.000001 0.000004 1.998917 -1.154079 1.154065 -0.000003 0.000001 -0.000000 9.109297 -0.518048 2.259913 -6.697102 -2.459073 10.394015 0.518788 0.852074 -8.045136 -0.000003 0.000004 -0.000004 0.000000 0.000002 -0.000001 9.533396 -0.000010 0.000005 -0.788159 7.789201 6.144148 0.007174 -0.486116 -13.943956 0.000000 -0.000001 0.000000 -0.000000 -0.000000 0.000004 9.104496 -0.043014 -1.865098 0.219888 16.598722 8.448390 -0.492797 -0.918185 -22.349248 -0.000002 -0.000000 -0.000000 -0.000001 0.000001 0.000001 8.077806 -0.486911 -3.806301 6.313548 25.496251 -2.313225 -0.705307 -2.871223 -16.946183 -0.000000 0.000000 0.000000 0.000002 0.000001 -0.000001 -8.207802 -6.751722 -1.599550 -46.116860 -4.084038 -8.585585 62.559103 1.151893 2.162114 11.231262 -15.226570 5.584091 0.321085 -0.002090 0.001586 -0.000000 0.000000 -0.000001 8.207800 -6.751714 -1.599544 -31.592289 10.528632 -0.893908 36.692265 -0.345331 -1.282287 -1.440602 2.649316 0.698699 -6.865492 -0.042607 0.024952 0.000000 -0.000000 0.000000 
-0.627537 142.084244 -0.755693 -5.171988 17.425281 6.268094 0.000001 10.181536 0.131523 0.161894 -0.751286 -0.995467 0.324796 -1.348767 -1.296400 0.324797 -1.348766 -1.296398 -0.000000 16.740377 -2.049022 8.049564 -2.174916 -0.010705 -0.000000 9.617879 1.684972 9.017034 -11.568735 -2.205228 -0.000000 22.037354 7.501076 -0.000000 -0.000000 0.000000 -4.570001 11.014882 -2.160840 0.559163 2.755896 4.880625 -0.425296 -3.620029 28.151492 4.323372 61.765619 -3.810535 -12.114294 -26.479173 -24.828842 -2.464806 -1.574007 2.681914 -10.328021 -1.313900 -8.957158 5.929353 0.659257 -8.093403 -2.646270 -1.527796 1.527824 0.000007 -0.000008 -0.000003 -1.994610 -1.151583 1.151574 -0.000000 -0.000007 0.000001 -9.108302 -0.517874 2.259819 -5.103970 2.286776 -8.562043 0.056212 -0.632379 6.483869 -0.000003 0.000011 -0.000007 -0.000000 -0.000002 0.000001 -9.532501 0.000013 0.000004 0.041828 -7.435057 -5.272617 -0.133754 0.658991 13.512127 -0.000003 0.000002 0.000002 -0.000003 -0.000002 0.000002 -9.103604 -0.043125 -1.865101 -1.561212 -16.758375 -9.692844 -0.264703 0.407815 23.924969 -0.000006 -0.000005 -0.000003 -0.000001 -0.000001 -0.000002 -8.076710 -0.486736 -3.806293 2.026096 -27.178308 -1.280410 -0.246033 1.881863 18.253105 0.000003 -0.000011 0.000012 0.000001 -0.000001 0.000002 4.570400 11.014705 -2.160814 0.374513 0.324160 -3.194480 -0.681909 35.812379 -8.226851 10.994625 -78.313371 10.772098 40.749892 13.148346 30.769094 2.466099 -1.576184 2.681706 -9.327203 5.317623 9.810503 4.331914 -1.353644 9.862637 2.647893 -1.528734 1.528755 0.000005 -0.000004 0.000007 1.998925 -1.154089 1.154063 0.000001 0.000002 -0.000000 9.109304 -0.517998 2.259899 -6.697108 -2.459052 10.393999 0.518792 0.852076 -8.045107 -0.000001 0.000005 -0.000003 0.000001 -0.000002 0.000002 9.533396 0.000028 0.000007 -0.788162 7.789205 6.144151 0.007163 -0.486117 -13.943955 -0.000003 -0.000000 0.000002 -0.000001 -0.000001 0.000001 9.104496 -0.042986 -1.865098 0.219885 16.598721 8.448394 -0.492803 -0.918179 -22.349248 0.000000 -0.000000 -0.000000 0.000002 -0.000000 0.000001 8.077801 -0.486882 -3.806295 6.313553 25.496261 -2.313240 -0.705315 -2.871209 -16.946183 -0.000001 0.000000 -0.000001 0.000000 0.000000 -0.000002 -8.207802 -6.751714 -1.599543 -46.292188 -4.456779 -8.409988 62.520505 1.155343 2.161635 11.106114 -15.228930 5.380803 0.098946 -0.000679 0.000495 0.000002 -0.000000 -0.000001 8.207801 -6.751695 -1.599544 -31.892759 10.288322 -0.627988 36.854444 -0.349546 -1.287759 -1.513115 2.814421 0.708386 -6.886538 -0.042747 0.025019 0.000000 0.000001 0.000001 
